<?xml version="1.0" encoding="UTF-8"?>
<!DOCTYPE svg PUBLIC "-//W3C//DTD SVG 1.1//EN" "http://www.w3.org/Graphics/SVG/1.1/DTD/svg11.dtd">
<svg xmlns="http://www.w3.org/2000/svg" version="1.1" width="454px" height="546px">

    <g>
        <path style="opacity:1" fill="#42B719"
              d="M 64.5,24.5 C 169.833,24.5 275.167,24.5 380.5,24.5C 380.5,50.1667 380.5,75.8333 380.5,101.5C 340.832,101.667 301.165,101.5 261.5,101C 257.502,99.7685 253.502,98.6018 249.5,97.5C 249.719,98.675 249.386,99.675 248.5,100.5C 246.167,99.1667 243.833,97.8333 241.5,96.5C 241.192,99.7499 241.025,103.083 241,106.5C 235.306,101.649 228.806,98.3159 221.5,96.5C 221.608,98.7834 222.441,100.783 224,102.5C 234.085,112.528 243.585,123.028 252.5,134C 250.721,133.956 249.055,133.289 247.5,132C 238.003,124.666 228.67,117.166 219.5,109.5C 219.027,108.094 218.027,107.427 216.5,107.5C 212.224,103.528 207.224,100.861 201.5,99.5C 202.058,102.344 202.725,105.178 203.5,108C 203.415,109.107 203.081,110.107 202.5,111C 194.77,111.14 188.103,108.473 182.5,103C 180.567,102.217 179.067,102.717 178,104.5C 177.058,110.744 177.891,116.744 180.5,122.5C 179.585,123.328 178.919,124.328 178.5,125.5C 181.116,132.012 183.116,138.679 184.5,145.5C 178.865,143.267 173.365,140.6 168,137.5C 167.833,137.833 167.667,138.167 167.5,138.5C 171.858,143.69 176.024,149.023 180,154.5C 181.619,159.071 183.785,163.404 186.5,167.5C 183.255,168.402 180.255,167.736 177.5,165.5C 175.812,163.613 173.812,162.447 171.5,162C 173.037,163.707 174.704,165.207 176.5,166.5C 180.944,171.203 184.278,176.703 186.5,183C 186.167,183.5 185.833,184 185.5,184.5C 183.833,183.833 182.167,183.167 180.5,182.5C 179.479,183.002 179.312,183.668 180,184.5C 193.471,198.971 207.304,213.138 221.5,227C 208.09,217.957 195.423,207.624 183.5,196C 182.833,195.333 182.167,195.333 181.5,196C 195.935,209.43 209.268,223.764 221.5,239C 233.538,247.018 245.872,254.518 258.5,261.5C 259.167,261.333 259.833,261.167 260.5,261C 256.039,254.705 251.039,248.872 245.5,243.5C 245.5,242.833 245.833,242.5 246.5,242.5C 253.016,246.838 259.683,251.005 266.5,255C 267.5,255.667 268.5,255.667 269.5,255C 268.001,252.672 266.334,250.505 264.5,248.5C 264.5,248.167 264.5,247.833 264.5,247.5C 275.779,257.274 287.779,266.107 300.5,274C 304.011,274.452 304.511,273.285 302,270.5C 298.962,267.631 296.129,264.631 293.5,261.5C 295.028,261.483 295.528,260.816 295,259.5C 287.959,251.962 281.126,244.296 274.5,236.5C 274.435,236.062 274.601,235.728 275,235.5C 275.837,237.007 277.004,237.507 278.5,237C 277.295,235.624 275.962,234.458 274.5,233.5C 268.907,226.403 262.74,219.736 256,213.5C 255.333,212.833 255.333,212.167 256,211.5C 266.452,218.951 276.619,226.784 286.5,235C 287.167,235.667 287.833,235.667 288.5,235C 276.287,223.288 264.62,211.122 253.5,198.5C 254.002,197.479 254.668,197.312 255.5,198C 263.707,205.046 272.04,211.879 280.5,218.5C 282.528,221.719 285.195,223.886 288.5,225C 287.5,224 286.5,223 285.5,222C 285.728,221.601 286.062,221.435 286.5,221.5C 296.291,229.234 306.291,236.734 316.5,244C 317.5,244.667 318.5,244.667 319.5,244C 309.043,232.842 298.209,222.009 287,211.5C 286.365,210.034 285.531,208.7 284.5,207.5C 285,207.167 285.5,206.833 286,206.5C 300.753,215.126 314.92,224.626 328.5,235C 329.167,235.667 329.833,235.667 330.5,235C 328.968,232.966 327.635,230.799 326.5,228.5C 327,228.167 327.5,227.833 328,227.5C 332.938,229.956 337.438,232.956 341.5,236.5C 338.598,235.422 335.598,234.756 332.5,234.5C 332.547,237.928 333.713,240.928 336,243.5C 348.533,255.701 361.366,267.535 374.5,279C 380.387,284.384 385.72,290.217 390.5,296.5C 389.635,297.583 388.635,297.749 387.5,297C 373.5,288.667 359.5,280.333 345.5,272C 334.527,262.848 323.193,254.182 311.5,246C 309.956,244.813 308.289,244.48 306.5,245C 320.255,262.093 334.755,278.593 350,294.5C 357.726,305.228 365.059,316.228 372,327.5C 372.49,328.793 372.657,330.127 372.5,331.5C 367.915,330.206 363.915,327.873 360.5,324.5C 359.121,321.927 357.121,320.427 354.5,320C 355.056,320.383 355.389,320.883 355.5,321.5C 348.732,317.247 342.066,312.747 335.5,308C 332.691,306.259 329.691,305.092 326.5,304.5C 327.787,308.062 329.287,311.396 331,314.5C 321.135,303.793 309.968,294.793 297.5,287.5C 296.459,291.474 297.293,295.141 300,298.5C 306.78,308.382 314.28,317.715 322.5,326.5C 323.833,327.5 323.833,328.5 322.5,329.5C 309.33,321.416 296.33,313.083 283.5,304.5C 283.167,304.833 282.833,305.167 282.5,305.5C 284.267,308.77 286.6,311.603 289.5,314C 280.854,309.841 272.188,305.341 263.5,300.5C 263.167,300.667 262.833,300.833 262.5,301C 268.302,305.8 273.802,310.967 279,316.5C 281.035,319.561 282.201,322.895 282.5,326.5C 281.127,326.657 279.793,326.49 278.5,326C 274.957,322.951 271.291,320.118 267.5,317.5C 265.587,314.958 265.253,315.292 266.5,318.5C 266.043,319.298 265.376,319.631 264.5,319.5C 256.669,315.219 249.003,311.219 241.5,307.5C 240.479,308.002 240.312,308.668 241,309.5C 242.961,311.928 244.794,314.428 246.5,317C 246.167,317.5 245.833,318 245.5,318.5C 244.549,317.674 243.549,317.508 242.5,318C 244.833,320.333 247.167,322.667 249.5,325C 239.747,319.964 230.413,313.964 221.5,307C 215.561,303.113 209.394,299.613 203,296.5C 201.623,297.036 201.623,298.036 203,299.5C 205.669,303 208.502,306.333 211.5,309.5C 211.167,310.167 210.833,310.833 210.5,311.5C 214.687,317.861 218.687,324.361 222.5,331C 222.167,331.5 221.833,332 221.5,332.5C 213.742,327.577 206.409,322.077 199.5,316C 190.155,311.276 180.488,307.442 170.5,304.5C 170.5,303.833 170.167,303.5 169.5,303.5C 165.325,300.165 160.992,296.998 156.5,294C 155.668,293.312 155.002,293.479 154.5,294.5C 161.932,306.363 170.098,317.696 179,328.5C 179.688,329.332 179.521,329.998 178.5,330.5C 175.596,328.714 172.596,328.381 169.5,329.5C 176.298,342.459 184.465,354.459 194,365.5C 196.912,368.987 198.412,372.987 198.5,377.5C 192.299,376.317 186.799,373.65 182,369.5C 181.963,371.271 182.13,373.104 182.5,375C 182.546,376.728 182.046,378.228 181,379.5C 180.5,427.499 180.333,475.499 180.5,523.5C 141.833,523.5 103.167,523.5 64.5,523.5C 64.1695,435.429 64.5028,347.429 65.5,259.5C 62.1667,253.167 58.8333,246.833 55.5,240.5C 58.7749,241.977 62.1082,243.144 65.5,244C 57.6451,234.98 49.9785,225.813 42.5,216.5C 43,216.167 43.5,215.833 44,215.5C 50.9362,219.589 57.7695,223.923 64.5,228.5C 64.8333,227.833 65.1667,227.167 65.5,226.5C 62.5639,221.721 59.3973,217.054 56,212.5C 51.277,208.28 47.1103,203.613 43.5,198.5C 44.0016,197.479 44.6683,197.312 45.5,198C 51.2905,202.122 56.7905,206.622 62,211.5C 60.4881,207.514 58.1548,203.848 55,200.5C 53.6966,198.06 52.53,195.56 51.5,193C 51.8333,192.5 52.1667,192 52.5,191.5C 56.3122,193.406 59.9788,195.239 63.5,197C 57.4675,191.302 51.8009,185.302 46.5,179C 52.4903,180.325 58.4903,181.659 64.5,183C 59.2032,177.872 54.8699,172.038 51.5,165.5C 52,165.167 52.5,164.833 53,164.5C 56.3898,166.131 59.8898,166.964 63.5,167C 59.9488,163.062 57.6154,158.562 56.5,153.5C 58.1667,153.5 59.8333,153.5 61.5,153.5C 62.209,154.404 63.209,154.737 64.5,154.5C 64.5,111.167 64.5,67.8333 64.5,24.5 Z"/>
    </g>
    <g>
        <path style="opacity:1" fill="#42B719"
              d="M 290.5,228.5 C 290.56,227.957 290.893,227.624 291.5,227.5C 296.618,232.111 296.285,232.444 290.5,228.5 Z"/>
    </g>
    <g>
        <path style="opacity:1" fill="#42B719"
              d="M 337.5,224.5 C 346.661,234.495 356.328,243.995 366.5,253C 365.833,253.667 365.167,253.667 364.5,253C 358.623,248.283 352.623,243.783 346.5,239.5C 346.672,238.508 346.338,237.842 345.5,237.5C 343.294,232.953 340.294,228.953 336.5,225.5C 336.5,224.833 336.833,224.5 337.5,224.5 Z"/>
    </g>
</svg>
